<mxfile host="app.diagrams.net" modified="2022-03-14T13:08:40.338Z" agent="5.0 (Windows NT 10.0; Win64; x64) AppleWebKit/537.36 (KHTML, like Gecko) Chrome/99.0.4844.51 Safari/537.36" etag="ZfM5DlhdzmavwnyA6SbI" version="17.1.2" type="github">
  <diagram id="RrrbwDcRu8NwH6buGpOI" name="Sida-1">
    <mxGraphModel dx="2012" dy="670" grid="1" gridSize="10" guides="1" tooltips="1" connect="1" arrows="1" fold="1" page="1" pageScale="1" pageWidth="827" pageHeight="1169" math="0" shadow="0">
      <root>
        <mxCell id="0" />
        <mxCell id="1" parent="0" />
        <mxCell id="gUE2hNBg0kZPoNcRV1zj-1" value="Users" style="rounded=1;whiteSpace=wrap;html=1;" parent="1" vertex="1">
          <mxGeometry x="510" y="480" width="120" height="60" as="geometry" />
        </mxCell>
        <mxCell id="gUE2hNBg0kZPoNcRV1zj-4" value="Documents" style="rounded=1;whiteSpace=wrap;html=1;" parent="1" vertex="1">
          <mxGeometry x="510" y="605" width="120" height="60" as="geometry" />
        </mxCell>
        <mxCell id="gUE2hNBg0kZPoNcRV1zj-5" value="Courses" style="rounded=1;whiteSpace=wrap;html=1;" parent="1" vertex="1">
          <mxGeometry x="250" y="480" width="120" height="60" as="geometry" />
        </mxCell>
        <mxCell id="gUE2hNBg0kZPoNcRV1zj-6" value="Modules" style="rounded=1;whiteSpace=wrap;html=1;" parent="1" vertex="1">
          <mxGeometry x="250" y="605" width="120" height="60" as="geometry" />
        </mxCell>
        <mxCell id="gUE2hNBg0kZPoNcRV1zj-7" value="Activities" style="rounded=1;whiteSpace=wrap;html=1;" parent="1" vertex="1">
          <mxGeometry x="250" y="860" width="120" height="60" as="geometry" />
        </mxCell>
        <mxCell id="gUE2hNBg0kZPoNcRV1zj-13" value="" style="fontSize=12;html=1;endArrow=ERzeroToOne;startArrow=ERzeroToMany;rounded=0;endFill=0;exitX=0;exitY=0.5;exitDx=0;exitDy=0;startFill=0;" parent="1" source="gUE2hNBg0kZPoNcRV1zj-1" target="gUE2hNBg0kZPoNcRV1zj-5" edge="1">
          <mxGeometry width="100" height="100" relative="1" as="geometry">
            <mxPoint x="530" y="350" as="sourcePoint" />
            <mxPoint x="590" y="330" as="targetPoint" />
          </mxGeometry>
        </mxCell>
        <mxCell id="gUE2hNBg0kZPoNcRV1zj-14" value="" style="fontSize=12;html=1;endArrow=ERmany;startArrow=ERmandOne;rounded=0;endFill=0;entryX=0.5;entryY=0;entryDx=0;entryDy=0;exitX=0.5;exitY=1;exitDx=0;exitDy=0;" parent="1" source="gUE2hNBg0kZPoNcRV1zj-5" target="gUE2hNBg0kZPoNcRV1zj-6" edge="1">
          <mxGeometry width="100" height="100" relative="1" as="geometry">
            <mxPoint x="490" y="590" as="sourcePoint" />
            <mxPoint x="480" y="600" as="targetPoint" />
          </mxGeometry>
        </mxCell>
        <mxCell id="gUE2hNBg0kZPoNcRV1zj-16" value="" style="fontSize=12;html=1;endArrow=ERmany;startArrow=ERmandOne;rounded=0;endFill=0;entryX=0.5;entryY=0;entryDx=0;entryDy=0;exitX=0.5;exitY=1;exitDx=0;exitDy=0;" parent="1" source="gUE2hNBg0kZPoNcRV1zj-6" target="gUE2hNBg0kZPoNcRV1zj-7" edge="1">
          <mxGeometry width="100" height="100" relative="1" as="geometry">
            <mxPoint x="290" y="520" as="sourcePoint" />
            <mxPoint x="510" y="520" as="targetPoint" />
          </mxGeometry>
        </mxCell>
        <mxCell id="gUE2hNBg0kZPoNcRV1zj-17" value="" style="fontSize=12;html=1;endArrow=ERzeroToMany;startArrow=ERmandOne;rounded=0;endFill=0;entryX=0.5;entryY=0;entryDx=0;entryDy=0;exitX=0.5;exitY=1;exitDx=0;exitDy=0;" parent="1" source="gUE2hNBg0kZPoNcRV1zj-1" target="gUE2hNBg0kZPoNcRV1zj-4" edge="1">
          <mxGeometry width="100" height="100" relative="1" as="geometry">
            <mxPoint x="320" y="550" as="sourcePoint" />
            <mxPoint x="320" y="615" as="targetPoint" />
          </mxGeometry>
        </mxCell>
        <mxCell id="gUE2hNBg0kZPoNcRV1zj-18" value="" style="fontSize=12;html=1;endArrow=ERzeroToMany;startArrow=ERmandOne;rounded=0;endFill=0;entryX=0;entryY=0;entryDx=0;entryDy=0;exitX=1;exitY=1;exitDx=0;exitDy=0;" parent="1" source="gUE2hNBg0kZPoNcRV1zj-5" target="gUE2hNBg0kZPoNcRV1zj-4" edge="1">
          <mxGeometry width="100" height="100" relative="1" as="geometry">
            <mxPoint x="580" y="270" as="sourcePoint" />
            <mxPoint x="580" y="620" as="targetPoint" />
          </mxGeometry>
        </mxCell>
        <mxCell id="gUE2hNBg0kZPoNcRV1zj-19" value="" style="fontSize=12;html=1;endArrow=ERzeroToMany;startArrow=ERmandOne;rounded=0;endFill=0;entryX=0;entryY=0.5;entryDx=0;entryDy=0;exitX=1;exitY=0.5;exitDx=0;exitDy=0;" parent="1" source="gUE2hNBg0kZPoNcRV1zj-6" target="gUE2hNBg0kZPoNcRV1zj-4" edge="1">
          <mxGeometry width="100" height="100" relative="1" as="geometry">
            <mxPoint x="380" y="520" as="sourcePoint" />
            <mxPoint x="520" y="620" as="targetPoint" />
          </mxGeometry>
        </mxCell>
        <mxCell id="gUE2hNBg0kZPoNcRV1zj-20" value="" style="fontSize=12;html=1;endArrow=ERzeroToMany;startArrow=ERmandOne;rounded=0;endFill=0;entryX=0.004;entryY=0.903;entryDx=0;entryDy=0;exitX=1;exitY=0.5;exitDx=0;exitDy=0;entryPerimeter=0;" parent="1" source="gUE2hNBg0kZPoNcRV1zj-7" target="gUE2hNBg0kZPoNcRV1zj-4" edge="1">
          <mxGeometry width="100" height="100" relative="1" as="geometry">
            <mxPoint x="390" y="530" as="sourcePoint" />
            <mxPoint x="530" y="630" as="targetPoint" />
          </mxGeometry>
        </mxCell>
        <mxCell id="cZ1uMNAsVfYl3Oj9-eTL-1" value="ActivityTypes" style="rounded=1;whiteSpace=wrap;html=1;" vertex="1" parent="1">
          <mxGeometry x="80" y="760" width="120" height="60" as="geometry" />
        </mxCell>
        <mxCell id="cZ1uMNAsVfYl3Oj9-eTL-2" value="" style="fontSize=12;html=1;endArrow=ERzeroToMany;startArrow=ERmandOne;rounded=0;exitX=0.5;exitY=1;exitDx=0;exitDy=0;entryX=0;entryY=0;entryDx=0;entryDy=0;startFill=0;endFill=0;" edge="1" parent="1" source="cZ1uMNAsVfYl3Oj9-eTL-1" target="gUE2hNBg0kZPoNcRV1zj-7">
          <mxGeometry width="100" height="100" relative="1" as="geometry">
            <mxPoint x="400" y="560" as="sourcePoint" />
            <mxPoint x="500" y="460" as="targetPoint" />
          </mxGeometry>
        </mxCell>
        <mxCell id="cZ1uMNAsVfYl3Oj9-eTL-3" value="Name" style="ellipse;whiteSpace=wrap;html=1;" vertex="1" parent="1">
          <mxGeometry x="60" y="410" width="70" height="40" as="geometry" />
        </mxCell>
        <mxCell id="cZ1uMNAsVfYl3Oj9-eTL-4" value="Description" style="ellipse;whiteSpace=wrap;html=1;" vertex="1" parent="1">
          <mxGeometry x="140" y="410" width="70" height="40" as="geometry" />
        </mxCell>
        <mxCell id="cZ1uMNAsVfYl3Oj9-eTL-5" value="StartDate" style="ellipse;whiteSpace=wrap;html=1;" vertex="1" parent="1">
          <mxGeometry x="220" y="410" width="70" height="40" as="geometry" />
        </mxCell>
        <mxCell id="cZ1uMNAsVfYl3Oj9-eTL-7" value="" style="endArrow=none;html=1;rounded=0;entryX=0.607;entryY=1.021;entryDx=0;entryDy=0;entryPerimeter=0;exitX=0;exitY=0.5;exitDx=0;exitDy=0;" edge="1" parent="1" source="gUE2hNBg0kZPoNcRV1zj-5" target="cZ1uMNAsVfYl3Oj9-eTL-3">
          <mxGeometry width="50" height="50" relative="1" as="geometry">
            <mxPoint x="450" y="570" as="sourcePoint" />
            <mxPoint x="500" y="520" as="targetPoint" />
          </mxGeometry>
        </mxCell>
        <mxCell id="cZ1uMNAsVfYl3Oj9-eTL-8" value="" style="endArrow=none;html=1;rounded=0;entryX=0.5;entryY=1;entryDx=0;entryDy=0;" edge="1" parent="1" source="gUE2hNBg0kZPoNcRV1zj-5" target="cZ1uMNAsVfYl3Oj9-eTL-5">
          <mxGeometry width="50" height="50" relative="1" as="geometry">
            <mxPoint x="260" y="520" as="sourcePoint" />
            <mxPoint x="112.49000000000001" y="460.84000000000015" as="targetPoint" />
          </mxGeometry>
        </mxCell>
        <mxCell id="cZ1uMNAsVfYl3Oj9-eTL-9" value="" style="endArrow=none;html=1;rounded=0;entryX=0.5;entryY=1;entryDx=0;entryDy=0;" edge="1" parent="1" source="gUE2hNBg0kZPoNcRV1zj-5" target="cZ1uMNAsVfYl3Oj9-eTL-4">
          <mxGeometry width="50" height="50" relative="1" as="geometry">
            <mxPoint x="270" y="530" as="sourcePoint" />
            <mxPoint x="122.49000000000001" y="470.84000000000015" as="targetPoint" />
          </mxGeometry>
        </mxCell>
        <mxCell id="cZ1uMNAsVfYl3Oj9-eTL-10" value="Name" style="ellipse;whiteSpace=wrap;html=1;" vertex="1" parent="1">
          <mxGeometry x="-30" y="625" width="70" height="40" as="geometry" />
        </mxCell>
        <mxCell id="cZ1uMNAsVfYl3Oj9-eTL-11" value="Description" style="ellipse;whiteSpace=wrap;html=1;" vertex="1" parent="1">
          <mxGeometry x="-30" y="580" width="70" height="40" as="geometry" />
        </mxCell>
        <mxCell id="cZ1uMNAsVfYl3Oj9-eTL-12" value="StartDate" style="ellipse;whiteSpace=wrap;html=1;" vertex="1" parent="1">
          <mxGeometry x="-20" y="530" width="70" height="40" as="geometry" />
        </mxCell>
        <mxCell id="cZ1uMNAsVfYl3Oj9-eTL-13" value="" style="endArrow=none;html=1;rounded=0;entryX=0.607;entryY=1.021;entryDx=0;entryDy=0;entryPerimeter=0;exitX=0;exitY=1;exitDx=0;exitDy=0;" edge="1" parent="1" target="cZ1uMNAsVfYl3Oj9-eTL-10" source="gUE2hNBg0kZPoNcRV1zj-6">
          <mxGeometry width="50" height="50" relative="1" as="geometry">
            <mxPoint x="180" y="670" as="sourcePoint" />
            <mxPoint x="430" y="680" as="targetPoint" />
          </mxGeometry>
        </mxCell>
        <mxCell id="cZ1uMNAsVfYl3Oj9-eTL-14" value="" style="endArrow=none;html=1;rounded=0;entryX=0.5;entryY=1;entryDx=0;entryDy=0;exitX=0;exitY=0;exitDx=0;exitDy=0;" edge="1" parent="1" target="cZ1uMNAsVfYl3Oj9-eTL-12" source="gUE2hNBg0kZPoNcRV1zj-6">
          <mxGeometry width="50" height="50" relative="1" as="geometry">
            <mxPoint x="212.5" y="640" as="sourcePoint" />
            <mxPoint x="42.49000000000001" y="620.8400000000001" as="targetPoint" />
          </mxGeometry>
        </mxCell>
        <mxCell id="cZ1uMNAsVfYl3Oj9-eTL-15" value="" style="endArrow=none;html=1;rounded=0;entryX=0.5;entryY=1;entryDx=0;entryDy=0;exitX=0;exitY=0.5;exitDx=0;exitDy=0;" edge="1" parent="1" target="cZ1uMNAsVfYl3Oj9-eTL-11" source="gUE2hNBg0kZPoNcRV1zj-6">
          <mxGeometry width="50" height="50" relative="1" as="geometry">
            <mxPoint x="180" y="643.3333333333335" as="sourcePoint" />
            <mxPoint x="52.49000000000001" y="630.8400000000001" as="targetPoint" />
          </mxGeometry>
        </mxCell>
        <mxCell id="cZ1uMNAsVfYl3Oj9-eTL-16" value="EndDate" style="ellipse;whiteSpace=wrap;html=1;" vertex="1" parent="1">
          <mxGeometry x="30" y="495" width="70" height="40" as="geometry" />
        </mxCell>
        <mxCell id="cZ1uMNAsVfYl3Oj9-eTL-17" value="" style="endArrow=none;html=1;rounded=0;entryX=0.5;entryY=1;entryDx=0;entryDy=0;exitX=0.25;exitY=0;exitDx=0;exitDy=0;" edge="1" parent="1" target="cZ1uMNAsVfYl3Oj9-eTL-16" source="gUE2hNBg0kZPoNcRV1zj-6">
          <mxGeometry width="50" height="50" relative="1" as="geometry">
            <mxPoint x="300" y="570" as="sourcePoint" />
            <mxPoint x="92.49000000000001" y="585.8400000000001" as="targetPoint" />
          </mxGeometry>
        </mxCell>
        <mxCell id="cZ1uMNAsVfYl3Oj9-eTL-18" value="Name" style="ellipse;whiteSpace=wrap;html=1;" vertex="1" parent="1">
          <mxGeometry x="130" y="970" width="70" height="40" as="geometry" />
        </mxCell>
        <mxCell id="cZ1uMNAsVfYl3Oj9-eTL-19" value="Description" style="ellipse;whiteSpace=wrap;html=1;" vertex="1" parent="1">
          <mxGeometry x="210" y="970" width="70" height="40" as="geometry" />
        </mxCell>
        <mxCell id="cZ1uMNAsVfYl3Oj9-eTL-20" value="StartDate" style="ellipse;whiteSpace=wrap;html=1;" vertex="1" parent="1">
          <mxGeometry x="290" y="970" width="70" height="40" as="geometry" />
        </mxCell>
        <mxCell id="cZ1uMNAsVfYl3Oj9-eTL-21" value="" style="endArrow=none;html=1;rounded=0;entryX=0.5;entryY=0;entryDx=0;entryDy=0;exitX=0.046;exitY=1;exitDx=0;exitDy=0;exitPerimeter=0;" edge="1" parent="1" target="cZ1uMNAsVfYl3Oj9-eTL-18" source="gUE2hNBg0kZPoNcRV1zj-7">
          <mxGeometry width="50" height="50" relative="1" as="geometry">
            <mxPoint x="320" y="1070" as="sourcePoint" />
            <mxPoint x="570" y="1080" as="targetPoint" />
          </mxGeometry>
        </mxCell>
        <mxCell id="cZ1uMNAsVfYl3Oj9-eTL-22" value="" style="endArrow=none;html=1;rounded=0;entryX=0.5;entryY=0;entryDx=0;entryDy=0;exitX=0.75;exitY=1;exitDx=0;exitDy=0;" edge="1" parent="1" target="cZ1uMNAsVfYl3Oj9-eTL-20" source="gUE2hNBg0kZPoNcRV1zj-7">
          <mxGeometry width="50" height="50" relative="1" as="geometry">
            <mxPoint x="352.5" y="1040" as="sourcePoint" />
            <mxPoint x="182.49" y="1020.8400000000001" as="targetPoint" />
          </mxGeometry>
        </mxCell>
        <mxCell id="cZ1uMNAsVfYl3Oj9-eTL-23" value="" style="endArrow=none;html=1;rounded=0;entryX=0.5;entryY=0;entryDx=0;entryDy=0;exitX=0.5;exitY=1;exitDx=0;exitDy=0;" edge="1" parent="1" target="cZ1uMNAsVfYl3Oj9-eTL-19" source="gUE2hNBg0kZPoNcRV1zj-7">
          <mxGeometry width="50" height="50" relative="1" as="geometry">
            <mxPoint x="320" y="1043.3333333333335" as="sourcePoint" />
            <mxPoint x="192.49" y="1030.8400000000001" as="targetPoint" />
          </mxGeometry>
        </mxCell>
        <mxCell id="cZ1uMNAsVfYl3Oj9-eTL-24" value="EndDate" style="ellipse;whiteSpace=wrap;html=1;" vertex="1" parent="1">
          <mxGeometry x="370" y="970" width="70" height="40" as="geometry" />
        </mxCell>
        <mxCell id="cZ1uMNAsVfYl3Oj9-eTL-25" value="" style="endArrow=none;html=1;rounded=0;entryX=0.5;entryY=0;entryDx=0;entryDy=0;exitX=1;exitY=1;exitDx=0;exitDy=0;" edge="1" parent="1" target="cZ1uMNAsVfYl3Oj9-eTL-24" source="gUE2hNBg0kZPoNcRV1zj-7">
          <mxGeometry width="50" height="50" relative="1" as="geometry">
            <mxPoint x="670" y="1080" as="sourcePoint" />
            <mxPoint x="482.49" y="1060.8400000000001" as="targetPoint" />
          </mxGeometry>
        </mxCell>
        <mxCell id="cZ1uMNAsVfYl3Oj9-eTL-26" value="Name" style="ellipse;whiteSpace=wrap;html=1;" vertex="1" parent="1">
          <mxGeometry x="-45.52000000000001" y="870" width="70" height="40" as="geometry" />
        </mxCell>
        <mxCell id="cZ1uMNAsVfYl3Oj9-eTL-27" value="" style="endArrow=none;html=1;rounded=0;entryX=0.5;entryY=0;entryDx=0;entryDy=0;exitX=0;exitY=1;exitDx=0;exitDy=0;" edge="1" parent="1" target="cZ1uMNAsVfYl3Oj9-eTL-26" source="cZ1uMNAsVfYl3Oj9-eTL-1">
          <mxGeometry width="50" height="50" relative="1" as="geometry">
            <mxPoint x="79.99999999999997" y="820" as="sourcePoint" />
            <mxPoint x="394.48" y="980" as="targetPoint" />
          </mxGeometry>
        </mxCell>
        <mxCell id="cZ1uMNAsVfYl3Oj9-eTL-29" value="Name" style="ellipse;whiteSpace=wrap;html=1;" vertex="1" parent="1">
          <mxGeometry x="540" y="760" width="70" height="40" as="geometry" />
        </mxCell>
        <mxCell id="cZ1uMNAsVfYl3Oj9-eTL-30" value="" style="endArrow=none;html=1;rounded=0;entryX=0.5;entryY=0;entryDx=0;entryDy=0;exitX=0.75;exitY=1;exitDx=0;exitDy=0;" edge="1" parent="1" target="cZ1uMNAsVfYl3Oj9-eTL-29" source="gUE2hNBg0kZPoNcRV1zj-4">
          <mxGeometry width="50" height="50" relative="1" as="geometry">
            <mxPoint x="665.52" y="710" as="sourcePoint" />
            <mxPoint x="980" y="870" as="targetPoint" />
          </mxGeometry>
        </mxCell>
        <mxCell id="cZ1uMNAsVfYl3Oj9-eTL-31" value="Data" style="ellipse;whiteSpace=wrap;html=1;" vertex="1" parent="1">
          <mxGeometry x="630" y="760" width="70" height="40" as="geometry" />
        </mxCell>
        <mxCell id="cZ1uMNAsVfYl3Oj9-eTL-32" value="" style="endArrow=none;html=1;rounded=0;entryX=0.5;entryY=0;entryDx=0;entryDy=0;exitX=1.002;exitY=0.895;exitDx=0;exitDy=0;exitPerimeter=0;" edge="1" parent="1" target="cZ1uMNAsVfYl3Oj9-eTL-31" source="gUE2hNBg0kZPoNcRV1zj-4">
          <mxGeometry width="50" height="50" relative="1" as="geometry">
            <mxPoint x="755.52" y="710" as="sourcePoint" />
            <mxPoint x="1070" y="870" as="targetPoint" />
          </mxGeometry>
        </mxCell>
        <mxCell id="cZ1uMNAsVfYl3Oj9-eTL-33" value="UploadDate" style="ellipse;whiteSpace=wrap;html=1;" vertex="1" parent="1">
          <mxGeometry x="720" y="700" width="70" height="40" as="geometry" />
        </mxCell>
        <mxCell id="cZ1uMNAsVfYl3Oj9-eTL-34" value="" style="endArrow=none;html=1;rounded=0;entryX=0;entryY=0.5;entryDx=0;entryDy=0;exitX=1.011;exitY=0.603;exitDx=0;exitDy=0;exitPerimeter=0;" edge="1" parent="1" source="gUE2hNBg0kZPoNcRV1zj-4" target="cZ1uMNAsVfYl3Oj9-eTL-33">
          <mxGeometry width="50" height="50" relative="1" as="geometry">
            <mxPoint x="629.9999999999998" y="625" as="sourcePoint" />
            <mxPoint x="664.76" y="726.3" as="targetPoint" />
          </mxGeometry>
        </mxCell>
        <mxCell id="cZ1uMNAsVfYl3Oj9-eTL-35" value="UserName" style="ellipse;whiteSpace=wrap;html=1;" vertex="1" parent="1">
          <mxGeometry x="535" y="378.82" width="70" height="40" as="geometry" />
        </mxCell>
        <mxCell id="cZ1uMNAsVfYl3Oj9-eTL-36" value="" style="endArrow=none;html=1;rounded=0;entryX=0.5;entryY=1;entryDx=0;entryDy=0;exitX=0.5;exitY=0;exitDx=0;exitDy=0;" edge="1" parent="1" target="cZ1uMNAsVfYl3Oj9-eTL-35" source="gUE2hNBg0kZPoNcRV1zj-1">
          <mxGeometry width="50" height="50" relative="1" as="geometry">
            <mxPoint x="620.0000000000001" y="320.00000000000006" as="sourcePoint" />
            <mxPoint x="653.4399999999999" y="405.11999999999995" as="targetPoint" />
          </mxGeometry>
        </mxCell>
        <mxCell id="cZ1uMNAsVfYl3Oj9-eTL-37" value="Email" style="ellipse;whiteSpace=wrap;html=1;" vertex="1" parent="1">
          <mxGeometry x="620" y="378.82" width="70" height="40" as="geometry" />
        </mxCell>
        <mxCell id="cZ1uMNAsVfYl3Oj9-eTL-38" value="" style="endArrow=none;html=1;rounded=0;entryX=0.5;entryY=1;entryDx=0;entryDy=0;exitX=0.75;exitY=0;exitDx=0;exitDy=0;" edge="1" parent="1" target="cZ1uMNAsVfYl3Oj9-eTL-37" source="gUE2hNBg0kZPoNcRV1zj-1">
          <mxGeometry width="50" height="50" relative="1" as="geometry">
            <mxPoint x="580" y="490" as="sourcePoint" />
            <mxPoint x="663.4399999999999" y="415.11999999999995" as="targetPoint" />
          </mxGeometry>
        </mxCell>
        <mxCell id="cZ1uMNAsVfYl3Oj9-eTL-39" value="Name" style="ellipse;whiteSpace=wrap;html=1;" vertex="1" parent="1">
          <mxGeometry x="710" y="378.82" width="70" height="40" as="geometry" />
        </mxCell>
        <mxCell id="cZ1uMNAsVfYl3Oj9-eTL-40" value="" style="endArrow=none;html=1;rounded=0;entryX=0.5;entryY=1;entryDx=0;entryDy=0;exitX=1;exitY=0;exitDx=0;exitDy=0;" edge="1" parent="1" target="cZ1uMNAsVfYl3Oj9-eTL-39" source="gUE2hNBg0kZPoNcRV1zj-1">
          <mxGeometry width="50" height="50" relative="1" as="geometry">
            <mxPoint x="735" y="471.18" as="sourcePoint" />
            <mxPoint x="818.4399999999999" y="396.29999999999995" as="targetPoint" />
          </mxGeometry>
        </mxCell>
      </root>
    </mxGraphModel>
  </diagram>
</mxfile>
